# xmcd
# 
# Track frame offsets:
#     150
#     8693
#     20280
#     32390
#     43783
#     55129
#     66074
#     75976
#     87696
#     98927
#     109858
#     120411
#     130944
#     140415
#     151769
#     161740
#     173206
#     183751
#     193751
#     202727
#     213564
#     224857
#     235766
#     246877
#     257581
# 
# Disc length: 3539
# 
# Revision: 0
# Processed by: cddbd v1.5.2PL0 Copyright (c) Steve Scherf et al.
# Submitted via: fre:ac v1.0.17
# 
DISCID=510dd119
DTITLE=Buck Owens - The Guitar man
DYEAR=0
DGENRE=Country
TTITLE0=Buck's Polka
TTITLE1=Foolin around ( Instrumental )
TTITLE2=Foolin around
TTITLE3=Heartaces by the number
TTITLE4=Heartaces for a dime
TTITLE5=I don´t believe I´ll fall in love today
TTITLE6=I´ll catch you when you fall
TTITLE7=Keeper of the key
TTITLE8=Keys in the mailbox
TTITLE9=Let´s agree to disagree
TTITLE10=Lying´ again
TTITLE11=Mexican Jumping Bean
TTITLE12=Mexican Polka
TTITLE13=Pick me up on your way down
TTITLE14=The Jolly Christmas Polka
TTITLE15=The one you slip around with
TTITLE16=Think it over
TTITLE17=Country Polka
TTITLE18=Guitar Fandango
TTITLE19=Raz-ma-taz Polka
TTITLE20=The Gaucho Came Riding
TTITLE21=Things I Saw Happening
TTITLE22=Together Again
TTITLE23=Tokyo Polka
TTITLE24=Turkish Holiday
EXTD=
EXTT0=
EXTT1=
EXTT2=
EXTT3=
EXTT4=
EXTT5=
EXTT6=
EXTT7=
EXTT8=
EXTT9=
EXTT10=
EXTT11=
EXTT12=
EXTT13=
EXTT14=
EXTT15=
EXTT16=
EXTT17=
EXTT18=
EXTT19=
EXTT20=
EXTT21=
EXTT22=
EXTT23=
EXTT24=
PLAYORDER=
